#!OML:ASF F:\VICON\USERDATA\INSTALL\rory3\rory3.ASF
:FULLY-SPECIFIED
:DEGREES
331
root 0.925908 17.6871 -17.1422 4.54006 -3.37969 0.0478164
lowerback 6.44545 -0.215909 -0.73993
upperback -0.0574628 -0.289299 1.45235
thorax -3.66375 -0.117584 1.94406
lowerneck -18.9088 -4.03492 -9.94038
upperneck 14.9972 -4.26473 7.72979
head 8.13922 -1.83205 3.68911
rclavicle 1.0138e-014 -5.1684e-015
rhumerus -44.0804 -8.03305 -75.0278
rradius 40.255
rwrist -0.639757
rhand -13.1745 19.1392
rfingers 7.12502
rthumb 12.925 -10.4406
lclavicle 1.0138e-014 -5.1684e-015
lhumerus -43.2772 12.9779 78.0642
lradius 35.2613
lwrist -0.284199
lhand -19.1386 19.9731
lfingers 7.12502
lthumb 7.17135 49.8316
rfemur -9.19581 2.33327 24.4559
rtibia 23.0942
rfoot -13.6493 -8.1271
rtoes 7.14793
lfemur -11.812 -3.46938 -19.4924
ltibia 25.4202
lfoot -14.2348 6.51141
ltoes 1.63209
332
root 0.921141 17.6918 -17.1628 4.65893 -3.48246 0.204393
lowerback 6.59665 -0.200362 -0.915139
upperback -0.0906778 -0.282389 1.4392
thorax -3.78271 -0.109811 2.03002
lowerneck -19.2355 -3.96778 -9.90911
upperneck 14.9832 -4.13485 7.66362
head 8.17626 -1.76863 3.67663
rclavicle 0 -3.18055e-015
rhumerus -43.8409 -7.81545 -74.8815
rradius 40.0395
rwrist -0.398167
rhand -13.4896 19.2785
rfingers 7.12502
rthumb 12.6213 -10.3202
lclavicle 0 -3.18055e-015
lhumerus -43.1629 13.2247 77.8776
lradius 35.1012
lwrist -0.61548
lhand -19.4307 20.2512
lfingers 7.12502
lthumb 6.88943 50.1191
rfemur -9.48809 2.20351 24.2679
rtibia 23.1642
rfoot -13.5813 -7.90638
rtoes 7.11823
lfemur -11.9249 -3.26542 -19.6354
ltibia 25.1813
lfoot -14.0825 6.34243
ltoes 2.09347
333
root 0.91166 17.6951 -17.1884 4.90536 -3.60085 0.291171
lowerback 6.7091 -0.146694 -1.08187
upperback -0.20984 -0.222953 1.45278
thorax -3.97146 -0.0743175 2.13399
lowerneck -19.5545 -3.93758 -9.93473
upperneck 15.0381 -4.05225 7.64086
head 8.24187 -1.72727 3.68331
rclavicle 1.28216e-014 3.57812e-015
rhumerus -43.6221 -7.72256 -74.6631
rradius 39.8487
rwrist -0.163795
rhand -13.6558 19.1049
rfingers 7.12502
rthumb 12.461 -10.5037
lclavicle 1.28216e-014 3.57812e-015
lhumerus -43.1576 13.2911 77.7533
lradius 35.1212
lwrist -0.723854
lhand -19.4259 21.5146
lfingers 7.12502
lthumb 6.89406 51.3823
rfemur -9.88519 2.22644 24.1706
rtibia 23.1974
rfoot -13.4847 -7.77155
rtoes 7.40991
lfemur -12.1854 -2.92164 -19.6575
ltibia 25.0151
lfoot -14.0042 6.00881
ltoes 2.03054
334
root 0.898597 17.6996 -17.2117 4.95285 -3.61182 0.389057
lowerback 7.01407 -0.122409 -1.30816
upperback -0.361687 -0.207995 1.49567
thorax -4.30091 -0.0570194 2.3082
lowerneck -19.5048 -3.90071 -9.93355
upperneck 15.0265 -3.9828 7.52239
head 8.22011 -1.70727 3.65158
rclavicle 4.82053e-015 -1.35174e-014
rhumerus -43.5531 -7.74656 -74.272
rradius 39.7327
rwrist 0.595182
rhand -13.3846 19.0145
rfingers 7.12502
rthumb 12.7225 -10.578
lclavicle 4.82053e-015 -1.35174e-014
lhumerus -43.2092 13.5305 77.5477
lradius 34.9076
lwrist -0.84274
lhand -19.4136 22.8342
lfingers 7.12502
lthumb 6.90588 52.7016
rfemur -10.0147 2.39204 24.1141
rtibia 23.1881
rfoot -13.3749 -7.90354
rtoes 7.30334
lfemur -12.3205 -2.53385 -19.6919
ltibia 24.889
lfoot -13.8314 5.58493
ltoes 1.50459
335
root 0.888255 17.7063 -17.2277 4.84727 -3.49624 0.473817
lowerback 7.36784 -0.137116 -1.4881
upperback -0.434151 -0.242662 1.55596
thorax -4.57336 -0.0655251 2.47999
lowerneck -19.4488 -3.92931 -9.90531
upperneck 14.9191 -3.9964 7.34949
head 8.17127 -1.72983 3.58445
rclavicle 6.95746e-015 7.55382e-015
rhumerus -43.4992 -8.03192 -73.7254
rradius 39.5669
rwrist 1.57587
rhand -12.8299 18.9994
rfingers 7.12502
rthumb 13.2572 -10.559
lclavicle 6.95746e-015 7.55382e-015
lhumerus -43.1065 14.3421 76.9994
lradius 33.9871
lwrist -1.51797
lhand -19.3621 20.296
lfingers 7.12502
lthumb 6.95563 50.1617
rfemur -9.92299 2.47982 24.0838
rtibia 23.149
rfoot -13.2629 -8.06529
rtoes 7.31531
lfemur -12.2851 -2.25965 -19.7319
ltibia 24.7893
lfoot -13.7306 5.2428
ltoes 0.910005
336
root 0.880962 17.7072 -17.2412 4.8448 -3.5217 0.499157
lowerback 7.54679 -0.0872574 -1.57529
upperback -0.437729 -0.18384 1.59276
thorax -4.68099 -0.0324498 2.56261
lowerneck -19.6597 -3.98082 -9.88137
upperneck 14.8676 -4.03651 7.28038
head 8.19192 -1.74992 3.54977
rclavicle -6.36111e-015 1.98785e-015
rhumerus -43.2164 -8.67501 -73.1172
rradius 39.099
rwrist 2.25814
rhand -12.5529 18.6583
rfingers 7.12502
rthumb 13.5241 -10.8825
lclavicle -6.36111e-015 1.98785e-015
lhumerus -42.7585 14.9218 76.667
lradius 33.2159
lwrist -1.91759
lhand -19.4363 19.0097
lfingers 7.12502
lthumb 6.88397 48.8778
rfemur -9.93846 2.58412 24.0846
rtibia 23.0749
rfoot -13.2219 -8.14138
rtoes 7.16723
lfemur -12.2469 -2.25708 -19.7065
ltibia 24.6907
lfoot -13.7348 5.18127
ltoes 1.00234
